<svg xmlns="http://www.w3.org/2000/svg" viewBox="0 0 40 40">
  <defs>
    <linearGradient id="g" x1="0" y1="0" x2="1" y2="1">
      <stop offset="0" stop-color="#F5D182"/>
      <stop offset="1" stop-color="#B8902F"/>
    </linearGradient>
  </defs>
  <rect width="40" height="40" rx="8" fill="#0A0A0B"/>
  <circle cx="20" cy="20" r="7" fill="url(#g)"/>
  <g fill="url(#g)">
    <rect x="19" y="4" width="2" height="5" rx="1"/>
    <rect x="19" y="31" width="2" height="5" rx="1"/>
    <rect x="4" y="19" width="5" height="2" rx="1"/>
    <rect x="31" y="19" width="5" height="2" rx="1"/>
    <rect x="19" y="4" width="2" height="5" rx="1" transform="rotate(45 20 20)"/>
    <rect x="19" y="4" width="2" height="5" rx="1" transform="rotate(-45 20 20)"/>
    <rect x="19" y="4" width="2" height="5" rx="1" transform="rotate(135 20 20)"/>
    <rect x="19" y="4" width="2" height="5" rx="1" transform="rotate(-135 20 20)"/>
  </g>
</svg>
